<?xml version="1.0" encoding="utf-8"?>
<!-- Generator: Adobe Illustrator 23.0.2, SVG Export Plug-In . SVG Version: 6.00 Build 0)  -->
<svg version="1.1" id="Слой_1" xmlns="http://www.w3.org/2000/svg" xmlns:xlink="http://www.w3.org/1999/xlink" x="0px" y="0px"
	 viewBox="0 0 715 500" style="enable-background:new 0 0 715 500;" xml:space="preserve">
<path d="M348.5,295.6c-7.7,0-15.4-2.5-21.7-7.6L75.3,85.1c-7.2-5.8-9.8-15.1-6.8-23.8c3.1-8.7,11-14.3,20.2-14.3h519.5
	c9.2,0,17.2,5.6,20.2,14.3s0.4,18-6.8,23.8L370.2,288C363.9,293.1,356.2,295.6,348.5,295.6z M113,77l232.7,187.7
	c1.6,1.3,4,1.3,5.7,0L584,77H113z"/>
<path d="M648.5,469h-599c-19,0-34.5-15.5-34.5-34.5V112.9c0-9.8,5.5-18.6,14.4-22.8c8.9-4.2,19.1-3,26.8,3.1l292.3,235.7L641.8,92.4
	c7.7-6.2,17.9-7.4,26.8-3.1c8.9,4.2,14.4,13,14.4,22.8v322.4C683,453.5,667.5,469,648.5,469z M45,122.8v311.7c0,2.5,2,4.5,4.5,4.5
	h599c2.5,0,4.5-2,4.5-4.5V122L360.6,357.7c-3.4,2.8-7.7,4.3-12.1,4.3s-8.7-1.5-12.1-4.3L45,122.8z"/>
</svg>
