<?xml version="1.0" encoding="utf-8"?>
<!-- Generator: Adobe Illustrator 23.0.2, SVG Export Plug-In . SVG Version: 6.00 Build 0)  -->
<svg version="1.1" id="Слой_1" xmlns="http://www.w3.org/2000/svg" xmlns:xlink="http://www.w3.org/1999/xlink" x="0px" y="0px"
	 viewBox="0 0 500 500" style="enable-background:new 0 0 500 500;" xml:space="preserve">
<path d="M30.7,458.6L30.7,458.6c-7-7-7-18.3,0-25.3L431.7,32.3c7-7,18.3-7,25.3,0l0,0c7,7,7,18.3,0,25.3L56.1,458.6
	C49.1,465.6,37.8,465.6,30.7,458.6z"/>
<path d="M431.9,458.8L30.6,57.4c-7-7-7-18.3,0-25.3l0,0c7-7,18.3-7,25.3,0l401.3,401.3c7,7,7,18.3,0,25.3l0,0
	C450.2,465.7,438.9,465.7,431.9,458.8z"/>
</svg>
