<?xml version="1.0" encoding="utf-8"?>
<!-- Generator: Adobe Illustrator 23.0.2, SVG Export Plug-In . SVG Version: 6.00 Build 0)  -->
<svg version="1.1" id="Слой_1" xmlns="http://www.w3.org/2000/svg" xmlns:xlink="http://www.w3.org/1999/xlink" x="0px" y="0px"
	 viewBox="0 0 500 500" style="enable-background:new 0 0 500 500;" xml:space="preserve">
<path d="M110.5,188.6v-0.9c0-47.7,14.2-92.7,40-126.6C176.8,26.5,212,7.4,249.6,7.4s72.8,19.1,99.1,53.7c25.8,33.9,40,78.9,40,126.6
	h-17c0-90-54.7-163.2-122-163.2s-122,73.2-122,163.2v0.8L110.5,188.6z"/>
<path d="M249.5,492.4c-114.2,0-207.1-92.9-207.1-207.1V176.9h414.1v108.4C456.6,399.5,363.7,492.4,249.5,492.4z M59.5,193.9v91.4
	c0,104.8,85.3,190.1,190.1,190.1s190.1-85.3,190.1-190.1v-91.4H59.5z"/>
<path d="M249.5,381.6c-14.7,0-26.7-12-26.7-26.7v-40.3c0-14.7,12-26.7,26.7-26.7s26.7,12,26.7,26.7v40.3
	C276.3,369.6,264.3,381.6,249.5,381.6z M249.5,304.8c-5.4,0-9.7,4.4-9.7,9.7v40.3c0,5.4,4.4,9.7,9.7,9.7s9.7-4.4,9.7-9.7v-40.3
	C259.3,309.1,254.9,304.8,249.5,304.8z"/>
</svg>
