<?xml version="1.0" encoding="utf-8"?>
<!-- Generator: Adobe Illustrator 23.0.2, SVG Export Plug-In . SVG Version: 6.00 Build 0)  -->
<svg version="1.1" id="Слой_1" xmlns="http://www.w3.org/2000/svg" xmlns:xlink="http://www.w3.org/1999/xlink" x="0px" y="0px"
	 viewBox="0 0 500 500" style="enable-background:new 0 0 500 500;" xml:space="preserve">
<path d="M482,297.4h-37.6c0-16.9-1.9-33.8-7.5-48.8c-5.6-15-11.3-28.2-20.7-41.3c-9.4-13.1-20.7-24.4-31.9-33.8
	c-13.1-9.4-26.3-18.8-41.3-26.3c-15-7.5-30.1-13.1-47-16.9c-31.9-7.5-62-7.5-95.8,0c-15,3.8-30.1,9.4-45.1,16.9
	c-13.1,7.5-28.2,15-39.4,26.3c-11.3,9.4-22.5,20.7-31.9,33.8s-16.9,26.3-20.7,41.3c-5.6,15-7.5,31.9-7.5,48.8H18
	c0-20.7,3.8-41.3,9.4-60.1s15-35.7,26.3-52.6c11.3-15,24.4-30.1,39.4-41.3s30.1-22.5,47-30.1c16.9-7.5,35.7-15,54.5-18.8
	c39.4-9.4,75.1-9.4,112.7,0c18.8,3.8,37.6,11.3,54.5,18.8c16.9,7.5,31.9,18.8,47,30.1c15,13.1,28.2,26.3,39.4,41.3
	c11.3,16.9,20.7,33.8,26.3,52.6C478.2,256.1,482,276.7,482,297.4z"/>
<path d="M247.2,410.1c-15,0-30.1-3.8-43.2-9.4s-24.4-13.1-35.7-24.4c-9.4-9.4-16.9-22.5-22.5-35.7c-5.6-13.1-9.4-28.2-9.4-45.1
	c0-15,3.8-30.1,9.4-45.1c5.6-13.1,13.1-26.3,24.4-35.7c9.4-11.3,22.5-18.8,35.7-24.4c26.3-11.3,60.1-11.3,86.4,0
	c13.1,5.6,24.4,15,35.7,24.4c9.4,9.4,16.9,22.5,24.4,35.7c5.6,15,9.4,30.1,9.4,45.1c0,15-3.8,30.1-9.4,45.1
	c-5.6,13.1-13.1,26.3-24.4,35.7c-9.4,11.3-22.5,18.8-35.7,24.4C277.2,406.4,262.2,410.1,247.2,410.1z M247.2,218.5
	c-9.4,0-18.8,1.9-28.2,5.6s-16.9,9.4-22.5,16.9c-7.5,5.6-13.1,15-16.9,24.4c-3.8,9.4-5.6,18.8-5.6,30.1c0,11.3,1.9,20.7,5.6,30.1
	c3.8,9.4,9.4,18.8,15,24.4c7.5,7.5,15,13.1,22.5,16.9c18.8,7.5,39.4,7.5,56.4,0c9.4-3.8,16.9-9.4,24.4-16.9c7.5-7.5,11.3-15,15-24.4
	c3.8-9.4,5.6-18.8,5.6-30.1c0-11.3-1.9-20.7-5.6-30.1c-3.8-9.4-9.4-16.9-15-24.4c-7.5-7.5-15-13.1-24.4-16.9
	C266,220.4,256.6,218.5,247.2,218.5z"/>
</svg>
