<?xml version="1.0" encoding="utf-8"?>
<!-- Generator: Adobe Illustrator 23.0.2, SVG Export Plug-In . SVG Version: 6.00 Build 0)  -->
<svg version="1.1" id="Слой_1" xmlns="http://www.w3.org/2000/svg" xmlns:xlink="http://www.w3.org/1999/xlink" x="0px" y="0px"
	 viewBox="0 0 7383.7 1729.5" style="enable-background:new 0 0 7383.7 1729.5;" xml:space="preserve">
<style type="text/css">
	.st0{fill:#272727;}
	.st1{fill:#034FC2;}
</style>
<g>
	<g>
		<path class="st0" d="M2608.4,656.7h309.5v63.8H2684v152.8h198.3V937H2684v213h-75.7L2608.4,656.7L2608.4,656.7z"/>
		<path class="st0" d="M3183.8,1086.2h120.7V720.4h-120.7v-63.8h317v63.8h-120.7v365.8h120.7v63.8h-317V1086.2z"/>
		<path class="st0" d="M3777.6,656.7h80.8l144,293.2l46.1,103.9h1.8c-3-49.7-10.1-108.8-10.1-162.3V656.7h72.1V1150h-80.8
			l-144-293.3L3841.3,753h-1.8c3,51.5,10.1,107.5,10.1,160.5V1150h-72.1V656.7L3777.6,656.7z"/>
		<path class="st0" d="M4503.5,656.7h88.1l163,493.3h-80.7l-79.5-268.7c-16.1-53.4-32.2-108.5-46.4-164.4h-3
			c-14.8,55.8-30.1,110.9-46.1,164.4L4418,1150h-77.4L4503.5,656.7z M4432,948.3h228.9v60.4H4432V948.3z"/>
		<path class="st0" d="M4982.8,656.7h80.8l144,293.2l46,103.9h1.8c-3-49.7-10.1-108.8-10.1-162.3V656.7h72.1V1150h-80.8l-144-293.3
			l-46-103.7h-1.8c3,51.5,10.1,107.5,10.1,160.5V1150h-72.1V656.7z"/>
		<path class="st0" d="M5573.6,904c0-159.9,95.3-256.4,224.8-256.4c60.2,0,108,28.9,138.4,60.8l-42.6,47.4
			c-25-25.7-55.9-42.1-95.8-42.1c-87.8,0-146.8,71.7-146.8,188.2c0,118.2,59,190.9,147.9,190.9c42.7,0,75.9-19,105-51.4l42.6,45.9
			c-38.8,45.8-89.4,71.7-155,71.7C5670.1,1159,5573.6,1066.3,5573.6,904z"/>
		<path class="st0" d="M6311.4,656.7h88.1l163,493.3h-80.7l-79.5-268.7c-16.1-53.4-32.2-108.5-46.4-164.4h-3
			c-14.8,55.8-30.1,110.9-46.1,164.4l-80.7,268.7h-77.4L6311.4,656.7z M6239.9,948.3h228.9v60.4h-228.9V948.3z"/>
		<path class="st0" d="M6827.6,656.7h75v429.6h237.5v63.8h-312.5L6827.6,656.7L6827.6,656.7z"/>
	</g>
</g>
<path class="st1" d="M1120.8,116.9v1.1H672c-61.7,0-111.7,50-111.7,111.7l0,0c0,61.7,50,111.7,111.7,111.7h355.2
	c51.6,0,93.5,41.9,93.5,93.5l0,0c0,51.1-41.4,92.5-92.6,92.5h-706c-60.7,0-111.3,48-112.9,108.7c-1.6,63,49,114.7,111.7,114.7h707
	c51.1,0,92.6,41.5,92.6,92.6v0.5c0,51.1-41.4,92.5-92.6,92.5H615c-61.7,0-111.7,50-111.7,111.7l0,0c0,61.7,50,111.7,111.7,111.7
	h300.8L1958.7,116.9H1120.8z"/>
<path class="st1" d="M384.8,341L384.8,341c61.6,0,111.5-49.9,111.5-111.5l0,0c0-61.6-49.9-111.5-111.5-111.5l0,0
	c-61.6,0-111.5,49.9-111.5,111.5l0,0C273.3,291.1,323.2,341,384.8,341z"/>
<path class="st0" d="M915.8,1159.8h112.1c51.1,0,92.6,41.5,92.6,92.6v0.7c0,51.1-41.4,92.5-92.6,92.5H929
	c-61.7,0-111.7,50-111.7,111.7l0,0c0,61.7,50,111.7,111.7,111.7h191.3h32h166.5c37.2,0,69-26.9,75.2-63.6l3.3-333.1
	c0.6-54.8,45.2-99,100-99h270.8c21.6,0,40.8-13.9,47.5-34.4l85.2-259.7c10.6-32.3-13.5-65.6-47.5-65.6h-198.9
	c-59.6,0-108-48.3-108-108l0,0c0-60.5,49-109.5,109.5-109.5h292.2c21,0,39.8-13.1,47-32.9L2096.8,184c11.9-32.6-12.3-67.1-47-67.1
	h-91.2"/>
</svg>
