<?xml version="1.0" encoding="utf-8"?>
<!-- Generator: Adobe Illustrator 23.0.2, SVG Export Plug-In . SVG Version: 6.00 Build 0)  -->
<svg version="1.1" id="Слой_1" xmlns="http://www.w3.org/2000/svg" xmlns:xlink="http://www.w3.org/1999/xlink" x="0px" y="0px"
	 viewBox="0 0 50 50" style="enable-background:new 0 0 50 50;" xml:space="preserve">
<style type="text/css">
	.st0{fill:#F9712D;}
</style>
<path class="st0" d="M24.99,0c3.7,0,7.4,0,11.1,0c6.74,0,12.31,4.53,13.65,11.13c0.17,0.81,0.24,1.66,0.25,2.49
	C50,21.2,50,28.77,50,36.35c-0.01,6.57-4.91,12.34-11.41,13.41c-0.8,0.13-1.62,0.2-2.43,0.2c-7.46,0.02-14.92,0.01-22.38,0.01
	c-6.79,0-12.54-4.9-13.61-11.61c-0.11-0.69-0.16-1.4-0.16-2.11C0,28.74,0,21.23,0,13.71c0-6.66,4.86-12.41,11.43-13.5
	c0.78-0.13,1.57-0.19,2.36-0.2C17.52-0.01,21.26,0,24.99,0z M46.26,24.98c0-3.67,0-7.35,0-11.02c0-0.49-0.02-0.98-0.08-1.47
	c-0.69-5.1-4.89-8.75-10.03-8.76c-7.44,0-14.87-0.01-22.31,0.01c-0.63,0-1.27,0.05-1.89,0.17c-4.87,0.95-8.2,4.99-8.2,9.96
	c-0.01,7.41,0,14.81,0,22.22c0,0.44,0.02,0.89,0.07,1.32c0.58,4.96,4.82,8.78,9.84,8.8c7.55,0.03,15.11,0.01,22.66,0
	c1.22,0,2.4-0.23,3.54-0.68c3.9-1.55,6.38-5.17,6.39-9.37C46.27,32.45,46.26,28.72,46.26,24.98z"/>
<path class="st0" d="M11.66,24.96c0.02-7.33,6.01-13.31,13.34-13.3c7.35,0.01,13.34,6.01,13.33,13.35
	c-0.02,7.33-6.01,13.31-13.34,13.3C17.64,38.31,11.65,32.3,11.66,24.96z M34.58,24.99c0-5.3-4.29-9.59-9.59-9.58
	c-5.29,0.01-9.57,4.28-9.57,9.57c0,5.3,4.29,9.59,9.59,9.58C30.3,34.55,34.57,30.28,34.58,24.99z"/>
<path class="st0" d="M38.84,13.73c-1.45,0-2.59-1.16-2.58-2.6c0.01-1.44,1.16-2.59,2.61-2.58c1.44,0,2.58,1.16,2.58,2.61
	C41.45,12.59,40.29,13.73,38.84,13.73z"/>
</svg>
