<?xml version="1.0" encoding="utf-8"?>
<!-- Generator: Adobe Illustrator 23.0.2, SVG Export Plug-In . SVG Version: 6.00 Build 0)  -->
<svg version="1.1" id="Слой_1" xmlns="http://www.w3.org/2000/svg" xmlns:xlink="http://www.w3.org/1999/xlink" x="0px" y="0px"
	 viewBox="0 0 2000 2000" style="enable-background:new 0 0 2000 2000;" xml:space="preserve">
<style type="text/css">
	.st0{fill:#034FC2;}
	.st1{fill:#272727;}
</style>
<path class="st0" d="M966.5,356.9v1.1H517.7C456,358,406,408,406,469.7l0,0c0,61.7,50,111.7,111.7,111.7h355.2
	c51.6,0,93.5,41.9,93.5,93.5l0,0c0,51.1-41.5,92.5-92.5,92.5h-706c-60.7,0-111.3,48-112.8,108.7c-1.6,63.1,49,114.7,111.7,114.7h707
	c51.1,0,92.6,41.5,92.5,92.6v0.5c0,51.1-41.5,92.5-92.5,92.5h-413c-61.7,0-111.7,50-111.7,111.7l0,0c0,61.7,50,111.7,111.7,111.7
	h300.8L1804.4,356.9H966.5z"/>
<path class="st0" d="M230.5,581L230.5,581c61.6,0,111.5-49.9,111.5-111.5l0,0c0-61.6-49.9-111.5-111.5-111.5l0,0
	C168.9,358,119,407.9,119,469.5l0,0C119,531.1,168.9,581,230.5,581z"/>
<path class="st1" d="M761.5,1399.8h112.1c51.1,0,92.6,41.5,92.5,92.6v0.7c0,51.1-41.5,92.5-92.5,92.5h-98.9
	c-61.7,0-111.7,50-111.7,111.7l0,0c0,61.7,50,111.7,111.7,111.7H966h32h166.5c37.2,0,69-26.9,75.2-63.6l3.3-333.1
	c0.6-54.8,45.2-99,100-99h270.8c21.6,0,40.8-13.9,47.5-34.4l85.2-259.7c10.6-32.3-13.5-65.6-47.5-65.6h-198.9
	c-59.6,0-108-48.3-108-108l0,0c0-60.5,49-109.5,109.5-109.5h292.2c21,0,39.8-13.1,47-32.9L1942.5,424c11.9-32.6-12.3-67.1-47-67.1
	h-91.2"/>
</svg>
